<?xml version="1.0" encoding="utf-8"?>
<!-- Generator: Adobe Illustrator 16.0.0, SVG Export Plug-In . SVG Version: 6.00 Build 0)  -->
<!DOCTYPE svg PUBLIC "-//W3C//DTD SVG 1.1//EN" "http://www.w3.org/Graphics/SVG/1.1/DTD/svg11.dtd">
<svg version="1.1" id="Layer_1" xmlns="http://www.w3.org/2000/svg" xmlns:xlink="http://www.w3.org/1999/xlink" x="0px" y="0px"
	 width="1102px" height="383px" viewBox="0 0 1102 383" enable-background="new 0 0 1102 383" xml:space="preserve">
<path fill="#BD232F" d="M357.488,368.241c0,3.72-0.797,6.021-2.392,6.909c-0.712,0.53-3.187,0.974-7.438,1.329
	c-10.81,1.06-26.038,1.592-45.699,1.592c-27.812,0-44.15-0.532-49.02-1.592c-4.87-1.065-7.305-3.456-7.305-7.176
	c0-13.991-3.129-88.714-3.129-88.714h25.417l-88.014-70.102L90.506,280.59h22.037c0,0-1.08,72.772-1.08,86.589
	c0,5.314-2.392,8.413-7.174,9.301c-5.67,1.06-22.317,1.592-49.95,1.592c-23.909,0-39.144-0.532-45.695-1.592
	c-5.14-0.888-7.705-3.631-7.705-8.238c0-19.131,0.931-48,2.789-86.614c1.858-38.613,2.789-67.572,2.789-86.88
	c0-20.544-0.888-51.409-2.657-92.591C2.084,60.975,1.205,30.112,1.205,9.564c0-3.895,1.857-5.844,5.578-5.844
	c5.488,0,13.768,0.265,24.84,0.796c11.07,0.533,19.349,0.798,24.844,0.798c5.664,0,14.214-0.265,25.637-0.798
	c11.425-0.531,19.97-0.796,25.639-0.796c3.008,0,4.519,1.594,4.519,4.782c0,13.285-0.979,33.168-2.923,59.647
	c-1.95,26.48-2.924,46.363-2.924,59.646c0,6.201,1.679,9.83,5.049,10.893c4.602,1.42,27.274,2.126,68.016,2.126
	c37.903,0,59.863-0.706,65.891-2.126c4.252-1.063,6.377-4.691,6.377-10.893c0-12.752-0.624-32.015-1.861-57.787
	c-1.242-25.771-1.858-45.122-1.858-58.053c0-5.488,2.208-8.235,6.641-8.235c5.134,0,12.972,0.265,23.515,0.796
	c10.537,0.533,18.463,0.798,23.777,0.798c5.133,0,12.973-0.265,23.516-0.798c10.535-0.531,18.463-0.796,23.777-0.796
	c5.133,0,7.703,2.125,7.703,6.375c0,20.371-0.842,51.103-2.522,92.194c-1.684,41.094-2.522,71.914-2.522,92.458
	c0,19.308,0.928,48.267,2.789,86.88C356.56,320.241,357.488,349.11,357.488,368.241z"/>
<path fill="#BD232F" d="M768.76,368.241c0,5.492-2.571,8.238-7.706,8.238h-94.053c-5.137,0-7.703-3.099-7.703-9.301
	c0-17.891,0.664-44.722,1.993-80.503c1.328-35.777,1.993-62.613,1.993-80.504c0-5.137-0.799-7.88-2.395-8.235
	c-1.949,1.063-13.813,28.429-35.601,82.096c-12.752,31.529-25.505,62.968-38.259,94.319c-1.775,4.075-3.986,6.463-6.644,7.173
	c-0.888,0.178-4.43,0.267-10.626,0.267c-9.215,0-14.704-1.772-16.474-5.312c-9.564-19.483-22.141-47.826-37.727-85.022
	c-16.653-39.32-29.141-67.749-37.463-85.285c-0.354-0.885-1.15-1.861-2.391-2.921c-1.242,1.593-1.858,4.163-1.858,7.703
	c0,17.36,0.441,43.398,1.329,78.112c0.882,34.719,1.328,60.754,1.328,78.112c0,6.202-2.482,9.301-7.439,9.301h-88.738
	c-3.545,0-5.715-0.576-6.512-1.729c-0.796-1.151-1.193-3.145-1.193-5.979c0-19.303,0.93-48.307,2.789-87.009
	c1.857-38.703,2.789-67.707,2.789-87.015c0-20.544-0.888-59.069-2.658-115.572c-0.18-14.701-0.976-36.575-2.391-65.625l-0.264-4.517
	c-0.183-3.541,3.537-5.313,11.156-5.313c9.742,0,24.354-0.308,43.84-0.931c19.48-0.619,34.093-0.929,43.839-0.929
	c1.942,0,4.69,3.72,8.235,11.159l77.58,170.305c5.489,11.515,10.097,17.271,13.816,17.271c1.944,0,6.11-6.643,12.487-19.928
	c17.886-37.195,44.369-93.256,79.441-168.18c3.007-6.907,6.285-10.361,9.827-10.361c5.135,0,12.886,0.266,23.248,0.797
	c10.363,0.531,18.2,0.797,23.515,0.797c4.425,0,11.199-0.441,20.325-1.329c9.118-0.885,15.893-1.329,20.325-1.329
	c5.312,0,7.969,2.126,7.969,6.377c0,20.901-0.753,52.119-2.257,93.654c-1.511,41.537-2.259,72.756-2.259,93.653
	c0,19.308,0.799,48.267,2.391,86.88C767.963,320.241,768.76,349.11,768.76,368.241z"/>
<path fill="#BD232F" d="M1101.062,261.7c0,32.592-10.185,59.605-30.553,81.036c-23.205,24.62-63.946,36.928-122.216,36.928
	c-4.432,0-10.809-0.089-19.13-0.264c-8.502,0-14.793,0-18.862,0c-65.361,0-104.241-1.329-116.638-3.986
	c-5.139-1.063-7.705-3.809-7.705-8.235c0-18.95,1.105-47.647,3.321-86.081c2.211-38.434,3.321-67.22,3.321-86.351
	c0-20.544-1.064-59.157-3.189-115.838c-0.529-14.522-1.509-36.309-2.921-65.359l-0.266-3.72c-0.181-3.363,2.608-5.401,8.369-6.11
	c5.753-0.708,26.253-1.063,61.505-1.063c56.502,0,89.537,0.179,99.102,0.532c43.573,1.594,75.721,8.679,96.444,21.254
	c27.452,16.829,41.182,45.257,41.182,85.286c0,10.452-3.189,21.52-9.566,33.211c-4.604,8.326-10.626,16.65-18.065,24.975
	c-6.558,7.264-9.83,10.627-9.83,10.096c0,1.24,2.302,3.188,6.906,5.845c12.398,7.085,22.138,18.332,29.228,33.743
	C1097.875,231.411,1101.062,246.117,1101.062,261.7z M986.818,112.119c0-15.23-7.622-25.328-22.851-30.289
	c-8.502-2.656-22.498-3.984-41.979-3.984c-19.128,0-28.694,1.418-28.694,4.25c0,3.366-0.312,8.46-0.931,15.276
	c-0.621,6.821-0.928,11.914-0.928,15.277c0,17.713,1.503,27.632,4.516,29.757c1.944,1.595,13.195,2.392,33.743,2.392
	C967.771,144.799,986.818,133.905,986.818,112.119z M994.787,260.639c0-15.941-6.641-26.743-19.927-32.412
	c-8.502-3.545-22.317-5.314-41.445-5.314c-22.851,0-35.252,0.842-37.197,2.522c-1.949,1.687-2.923,12.533-2.923,32.546
	c0,20.9,1.148,32.457,3.456,34.674c2.3,2.216,15.051,3.321,38.256,3.321c19.131,0,32.592-1.506,40.386-4.519
	C988.321,286.32,994.787,276.047,994.787,260.639z"/>
<path fill-rule="evenodd" clip-rule="evenodd" fill="#010101" stroke="#010101" stroke-width="2" stroke-miterlimit="10" d="
	M198.413,286.785c2.451,0.542,7.331,3.215,9.75,3.875c1.021,0.278,2.311-0.477,3.25,0.063c0.789,0.451,1.75,2,1.75,2
	s4.064,2.027,5.113,2.644c-0.094,0.317-0.188,0.634-0.281,0.95c-1.725-0.504-3.449-1.01-5.234-1.532
	c-0.249,4.082-0.178,8.191-0.816,12.187c-1.113,6.984-2.811,7.596-8.531,3.461c-2.059-1.487-3.979-3.182-5.867-4.885
	c-1.799-1.623-3.473-3.383-5.35-5.231c-4.666,4.718-6.389,10.582-7.646,16.608c-0.629,3.004-0.934,6.084-1.238,9.145
	c-0.172,1.748-0.189,3.351-2.401,3.887c-0.433,0.104-0.886,1.34-0.841,2.022c0.73,11.433,4.529,23.042,5.324,34.472
	c0.139,1.976,0.316,3.946,0.471,5.856c1.627,0.438,3.199,0.558,4.389,1.294c0.725,0.45,1.168,1.859,1.143,2.82
	c-0.016,0.594-1.16,1.66-1.785,1.651c-4.221-0.059-8.456-0.203-12.643-0.702c-0.713-0.084-1.656-1.967-1.739-3.077
	c-1.079-14.263-5.013-28.718-6.007-42.987c-0.016-0.262-0.243-0.511-0.809-1.626c-2.188,14.521-4.252,28.214-6.338,42.058
	c1.605,0.168,3.188,0.017,4.461,0.572c0.984,0.431,2.063,1.667,2.24,2.693c0.309,1.786-0.909,2.59-2.771,2.452
	c-3.579-0.267-7.166-0.43-10.75-0.643c-2.654-0.157-3.087-2.062-2.811-4.063c1.752-12.711,3.689-25.396,5.365-38.115
	c0.373-2.848-0.264-5.814-0.063-8.701c0.315-4.541,1-9.056,1.438-13.591c1.253-12.982,8.689-21.984,18.762-29.309
	c0.508-0.368,0.998-0.759,1.973-1.499c-5.793-2.319-11.205-4.485-17.463-6.989c-0.959,4.78-2.412,10.087-2.998,14.524
	c-0.496,3.772-1.402,23.74-13.768,17.844c-17.652-8.418-5.088-20.936-1.439-23.871c4.287-3.451,13.646-8.387,15.212-9.571
	c-2.142-1.023-2.835-1.354-4.728-2.258c0.094-0.314,0.186-0.629,0.277-0.943c1.262,0.22,4.814,1.557,6.025,1.767
	c-0.455-1.813-1.529-5.686-1.998-7.559c0.299-0.184,0.6-0.369,0.898-0.554c1.893,1.811,2.787,2.622,4.625,4.378
	c2.174-0.034,2.582-0.072,4.99-0.11c0.072,0.309,0.146,0.617,0.219,0.926c-1.387,1.046-4.977,2.187-6.609,3.419
	c5.01,2.014,13.287,5.798,18.13,7.575c0.808,0.295,1.976-0.361,2.968-0.615c1.742-0.448,3.475-0.925,5.266-1.403
	c2.066-10.177,5.533-14.094,12.56-14.093c5.447,0,10.542,4.452,11.538,10.08C214.774,280.588,208.163,286.16,198.413,286.785z
	 M197.177,288.381c-0.197,1.373-0.867,2.811-0.416,3.42c3.086,4.176,6.408,8.178,9.654,12.235c0.293-0.086,0.588-0.169,0.883-0.254
	c0.189-3.134,0.699-10.477,0.699-10.477s-0.761-0.759-1.371-1.04C203.685,290.909,200.642,289.778,197.177,288.381z"/>
</svg>
